<svg width="50" height="50" viewBox="0 0 50 50" fill="none" xmlns="http://www.w3.org/2000/svg">
<path d="M25.1063 38.0572C21.5885 38.0572 18.2149 36.6597 15.7275 34.1723C13.24 31.6849 11.8426 28.3112 11.8426 24.7935C11.8426 21.2757 13.24 17.9021 15.7275 15.4146C18.2149 12.9272 21.5885 11.5298 25.1063 11.5298C28.624 11.5298 31.9977 12.9272 34.4851 15.4146C36.9725 17.9021 38.37 21.2757 38.37 24.7935C38.37 28.3112 36.9725 31.6849 34.4851 34.1723C31.9977 36.6597 28.624 38.0572 25.1063 38.0572ZM22.8957 0.476746H27.3169V7.10858H22.8957V0.476746ZM22.8957 42.4784H27.3169V49.1102H22.8957V42.4784ZM6.34924 9.16224L9.47505 6.03644L14.1638 10.7251L11.0379 13.851L6.34924 9.16445V9.16224ZM36.0488 38.8618L39.1746 35.736L43.8633 40.4247L40.7375 43.5505L36.0488 38.8618ZM40.7375 6.03422L43.8633 9.16224L39.1746 13.851L36.0488 10.7251L40.7375 6.03644V6.03422ZM11.0379 35.736L14.1638 38.8618L9.47505 43.5505L6.34924 40.4247L11.0379 35.736V35.736ZM49.423 22.5829V27.0041H42.7912V22.5829H49.423ZM7.42139 22.5829V27.0041H0.789551V22.5829H7.42139Z" fill="white"/>
</svg>
