<svg width="47" height="34" viewBox="0 0 47 34" fill="none" xmlns="http://www.w3.org/2000/svg">
<path d="M35.8124 3.25788C30.8531 3.25788 27.1103 6.53286 25.6131 11.6793C23.2739 8.02999 21.4025 3.91287 20.3732 0.357178H15.1332V14.1121C15.1332 16.8257 12.8875 19.0714 10.1739 19.0714C7.46039 19.0714 5.21469 16.8257 5.21469 14.1121V0.450748H0.161865V14.2057C0.161865 19.9135 4.74684 24.4985 10.3611 24.4985C15.9753 24.4985 20.5603 19.9135 20.5603 14.2057V11.8664C21.5896 13.925 22.8996 16.1707 24.3031 18.1356L21.0282 33.3877H26.3617L28.6074 22.2528C30.666 23.5628 33.0052 24.3113 35.8124 24.3113C41.5202 24.3113 46.1987 19.6328 46.1987 13.6442C46.1987 7.93642 41.5202 3.25788 35.8124 3.25788ZM35.8124 19.0714C33.7538 19.0714 31.6017 18.1356 29.9174 16.7321L30.4788 14.6735V14.5799C30.8531 12.3342 32.0695 8.59141 35.9059 8.59141C38.8066 8.59141 41.1459 10.9307 41.1459 13.8314C41.0523 16.7321 38.5259 19.0714 35.8124 19.0714Z" fill="white"/>
</svg>
